<svg xmlns="http://www.w3.org/2000/svg" xmlns:xlink="http://www.w3.org/1999/xlink" width="500" zoomAndPan="magnify" viewBox="0 0 375 374.999991" height="500" preserveAspectRatio="xMidYMid meet" version="1.0"><defs><clipPath id="618f55d469"><path d="M 28 51 L 281 51 L 281 319 L 28 319 Z M 28 51 " clip-rule="nonzero"/></clipPath><clipPath id="4cb7042b85"><path d="M 423.714844 185.757812 L 241.875 453.011719 L 4.386719 291.421875 L 186.226562 24.167969 Z M 423.714844 185.757812 " clip-rule="nonzero"/></clipPath><clipPath id="f254789d2e"><path d="M 423.714844 185.757812 L 241.875 453.011719 L 4.386719 291.421875 L 186.226562 24.167969 Z M 423.714844 185.757812 " clip-rule="nonzero"/></clipPath><clipPath id="6778175751"><path d="M 246 239 L 306 239 L 306 319 L 246 319 Z M 246 239 " clip-rule="nonzero"/></clipPath><clipPath id="52ca369cdd"><path d="M 423.714844 185.757812 L 241.875 453.011719 L 4.386719 291.421875 L 186.226562 24.167969 Z M 423.714844 185.757812 " clip-rule="nonzero"/></clipPath><clipPath id="7180b99482"><path d="M 423.714844 185.757812 L 241.875 453.011719 L 4.386719 291.421875 L 186.226562 24.167969 Z M 423.714844 185.757812 " clip-rule="nonzero"/></clipPath><clipPath id="861501bf3a"><path d="M 280 270 L 318 270 L 318 319 L 280 319 Z M 280 270 " clip-rule="nonzero"/></clipPath><clipPath id="2441705b6c"><path d="M 423.714844 185.757812 L 241.875 453.011719 L 4.386719 291.421875 L 186.226562 24.167969 Z M 423.714844 185.757812 " clip-rule="nonzero"/></clipPath><clipPath id="83d3983eca"><path d="M 423.714844 185.757812 L 241.875 453.011719 L 4.386719 291.421875 L 186.226562 24.167969 Z M 423.714844 185.757812 " clip-rule="nonzero"/></clipPath><clipPath id="16c8ec94f1"><path d="M 212 208 L 293 208 L 293 319 L 212 319 Z M 212 208 " clip-rule="nonzero"/></clipPath><clipPath id="47f6a5c480"><path d="M 423.714844 185.757812 L 241.875 453.011719 L 4.386719 291.421875 L 186.226562 24.167969 Z M 423.714844 185.757812 " clip-rule="nonzero"/></clipPath><clipPath id="246e3868c4"><path d="M 423.714844 185.757812 L 241.875 453.011719 L 4.386719 291.421875 L 186.226562 24.167969 Z M 423.714844 185.757812 " clip-rule="nonzero"/></clipPath><clipPath id="284927d702"><path d="M 314 302 L 333 302 L 333 320 L 314 320 Z M 314 302 " clip-rule="nonzero"/></clipPath><clipPath id="ea8420984a"><path d="M 423.714844 185.757812 L 241.875 453.011719 L 4.386719 291.421875 L 186.226562 24.167969 Z M 423.714844 185.757812 " clip-rule="nonzero"/></clipPath><clipPath id="67dd23fba5"><path d="M 423.714844 185.757812 L 241.875 453.011719 L 4.386719 291.421875 L 186.226562 24.167969 Z M 423.714844 185.757812 " clip-rule="nonzero"/></clipPath></defs><rect x="-37.5" width="450" fill="#ffffff" y="-37.499999" height="449.999989" fill-opacity="1"/><rect x="-37.5" width="450" fill="#0c0a09" y="-37.499999" height="449.999989" fill-opacity="1"/><g clip-path="url(#618f55d469)"><g clip-path="url(#4cb7042b85)"><g clip-path="url(#f254789d2e)"><path fill="#ffffff" d="M 67.714844 283.136719 L 43.820312 318.253906 L 57.34375 318.269531 L 76.964844 289.429688 L 78.054688 287.828125 L 99.777344 255.90625 L 120.042969 255.921875 L 91.917969 297.257812 L 90.824219 298.859375 L 77.609375 318.28125 L 91.128906 318.292969 L 100.070312 305.152344 L 101.160156 303.546875 L 133.558594 255.9375 L 153.832031 255.949219 L 115.027344 312.984375 L 113.9375 314.585938 L 111.402344 318.308594 L 124.917969 318.324219 L 167.355469 255.957031 L 187.617188 255.976562 L 145.1875 318.335938 L 158.707031 318.347656 L 201.136719 255.988281 L 221.40625 256.011719 L 178.976562 318.367188 L 192.492188 318.382812 L 234.925781 256.019531 L 243.054688 256.023438 L 240.066406 248.464844 L 280.367188 189.234375 L 275.394531 176.664062 L 235.09375 235.894531 L 227.632812 217.046875 L 267.933594 157.816406 L 262.957031 145.25 L 222.65625 204.480469 L 215.203125 185.636719 L 255.503906 126.40625 L 250.53125 113.832031 L 210.230469 173.0625 L 202.769531 154.214844 L 243.070312 94.984375 L 238.097656 82.414062 L 197.796875 141.644531 L 190.34375 122.800781 L 230.640625 63.574219 L 225.660156 51 L 224.976562 52.007812 L 185.363281 110.230469 L 164.175781 56.691406 L 28.6875 255.84375 L 86.25 255.894531 L 68.804688 281.53125 Z M 67.714844 283.136719 " fill-opacity="1" fill-rule="nonzero"/></g></g></g><g clip-path="url(#6778175751)"><g clip-path="url(#52ca369cdd)"><g clip-path="url(#7180b99482)"><path fill="#ffffff" d="M 260.074219 318.429688 L 305.226562 252.066406 L 300.253906 239.5 L 246.550781 318.429688 Z M 260.074219 318.429688 " fill-opacity="1" fill-rule="nonzero"/></g></g></g><g clip-path="url(#861501bf3a)"><g clip-path="url(#2441705b6c)"><g clip-path="url(#83d3983eca)"><path fill="#ffffff" d="M 293.863281 318.464844 L 317.660156 283.488281 L 312.6875 270.914062 L 280.34375 318.449219 Z M 293.863281 318.464844 " fill-opacity="1" fill-rule="nonzero"/></g></g></g><g clip-path="url(#16c8ec94f1)"><g clip-path="url(#47f6a5c480)"><g clip-path="url(#246e3868c4)"><path fill="#ffffff" d="M 226.277344 318.40625 L 292.792969 220.652344 L 287.820312 208.078125 L 212.761719 318.394531 Z M 226.277344 318.40625 " fill-opacity="1" fill-rule="nonzero"/></g></g></g><g clip-path="url(#284927d702)"><g clip-path="url(#ea8420984a)"><g clip-path="url(#67dd23fba5)"><path fill="#ffffff" d="M 332.726562 319.335938 L 325.121094 302.335938 L 314.136719 318.480469 Z M 332.726562 319.335938 " fill-opacity="1" fill-rule="nonzero"/></g></g></g></svg>